<svg width="64" height="64" viewBox="0 0 64 64" fill="none" xmlns="http://www.w3.org/2000/svg">
    <g clip-path="url(#clip0_3077_124606)">
        <path d="M46.1999 43.5016L54.1999 46.2016C61.9999 48.8016 61.1999 62.4016 61.0999 62.6016C60.9999 63.4016 61.5999 64.0016 62.3999 64.1016H62.4999C63.1999 64.1016 63.7999 63.5016 63.8999 62.8016C63.8999 62.2016 64.7999 46.9016 54.9999 43.6016L41.1999 39.0016V34.0016C41.1999 33.9016 41.1999 33.8016 41.1999 33.8016C45.1999 29.9016 45.9999 23.7016 46.4999 18.8016L46.5999 18.1016C46.9999 14.7016 47.1999 10.8016 45.3999 7.40156C43.8999 4.50156 41.0999 2.20156 37.4999 1.00156C33.8999 -0.198438 29.8999 -0.198438 26.2999 1.00156C22.7999 2.20156 19.9999 4.50156 18.3999 7.40156C16.5999 10.8016 16.7999 14.8016 17.1999 18.1016L17.2999 18.8016C17.8999 23.8016 18.5999 29.9016 22.5999 33.8016C22.5999 33.9016 22.5999 34.0016 22.5999 34.0016V38.9016L8.89994 43.5016C-0.900059 46.8016 -5.78482e-05 62.1016 -5.78482e-05 62.7016C0.0999422 63.4016 0.699942 64.0016 1.39994 64.0016H1.49994C2.29994 63.9016 2.79994 63.3016 2.79994 62.5016C2.79994 62.4016 1.99994 48.7016 9.69994 46.1016L17.2999 43.5016L21.6999 42.0016L22.7999 41.6016C24.0999 47.3016 30.7999 51.6016 31.0999 51.8016C31.4999 52.1016 32.0999 52.1016 32.5999 51.8016C32.8999 51.6016 39.6999 47.3016 40.8999 41.6016L42.2999 42.1016L46.1999 43.5016ZM35.5999 34.4016C35.4999 34.7016 35.4999 35.1016 35.5999 35.5016C35.7999 36.0016 36.2999 36.3016 36.8999 36.3016C37.0999 36.3016 37.2999 36.3016 37.3999 36.2016C37.6999 36.0016 38.0999 35.9016 38.3999 35.7016V39.9016C38.3999 44.0016 33.6999 47.8016 31.8999 49.1016C30.0999 47.8016 25.3999 44.0016 25.3999 39.9016V35.7016C25.7999 35.9016 26.0999 36.1016 26.3999 36.2016C27.0999 36.5016 27.8999 36.2016 28.1999 35.5016C28.3999 35.2016 28.3999 34.8016 28.1999 34.4016C28.0999 34.1016 27.7999 33.8016 27.4999 33.6016C21.5999 31.1016 20.6999 24.0016 19.9999 18.3016L19.8999 17.6016C19.4999 14.6016 19.3999 11.3016 20.7999 8.50156C21.9999 6.20156 24.1999 4.40156 27.0999 3.50156C29.9999 2.50156 33.5999 2.50156 36.4999 3.50156C39.3999 4.50156 41.5999 6.30156 42.7999 8.50156C44.1999 11.3016 44.0999 14.7016 43.6999 17.6016L43.5999 18.3016C42.8999 24.0016 41.9999 31.1016 36.0999 33.6016C35.9999 33.8016 35.7999 34.1016 35.5999 34.4016Z" fill="#020203"/>
        <path d="M42.2 16.5981V13.7981H40.7999C39.4 13.7981 38.2999 13.2981 37.7999 12.1981C37.2999 11.2981 37.2999 10.3981 37.2999 10.2981C37.2999 9.59813 36.7999 8.99813 36.0999 8.89813C35.3999 8.79813 34.7999 9.19813 34.5999 9.79813C33.8999 11.9981 32.5 13.7981 23.1 13.7981H21.7V16.5981H23.1C29.8 16.5981 33.5 15.7981 35.5 13.6981C36.6 15.5981 38.5 16.5981 40.9 16.5981H42.2Z" fill="#020203"/>
    </g>
    <defs>
        <clipPath id="clip0_3077_124606">
            <rect width="64" height="64" fill="white"/>
        </clipPath>
    </defs>
</svg>
